P3
5 20
255
40
40
40

150
150
150

0
0
0

125
125
125

255
255
255

60
60
60

24
24
24

10
10
10

40
40
40

40
40
40

40
40
40

0
0
0

0
0
0

0
0
0

0
0
0

0
0
0

0
0
0

71
71
71

5
5
5

70
70
70

85
85
85

200
200
200

78
78
78

249
249
249

33
33
33

185
185
185

235
235
235

161
161
161

68
68
68

241
241
241

130
130
130

45
45
45

246
246
246

63
63
63

225
225
225

236
236
236

77
77
77

110
110
110

190
190
190

229
229
229

39
39
39

193
193
193

117
117
117

252
252
252

155
155
155

141
141
141

84
84
84

94
94
94

42
42
42

154
154
154

250
250
250

98
98
98

228
228
228

153
153
153

209
209
209

23
23
23

123
123
123

21
21
21

183
183
183

231
231
231

4
4
4

210
210
210

67
67
67

208
208
208

54
54
54

237
237
237

242
242
242

177
177
177

159
159
159

124
124
124

243
243
243

186
186
186

86
86
86

187
187
187

115
115
115

201
201
201

146
146
146

66
66
66

191
191
191

38
38
38

221
221
221

218
218
218

3
3
3

222
222
222

57
57
57

22
22
22

119
119
119

107
107
107

16
16
16

217
217
217

136
136
136

6
6
6

230
230
230

220
220
220

40
40
40

197
197
197

167
167
167

121
121
121

41
41
41

10
10
10
