P3
10 10
255
29 98 34 248 53 63 65 246 104 99 213 29 233 222 61 34 226 184 109 213 184 13 9 3 245 48 21 194 26 146 101 8 247 228 46 101 82 49 184 56 68 179 247 69 155 159 14 166 136 9 137 243 226 219 75 95 151 71 24 197 153 164 129 167 211 75 129 137 107 230 25 158 71 147 60 135 159 185 121 224 238 137 149 240 96 171 152 61 44 182 67 42 220 238 50 103 111 164 82 43 208 44 54 148 22 162 201 8 162 172 200 88 166 87 47 34 53 200 14 157 196 238 54 205 242 102 128 138 55 98 104 85 227 115 178 58 38 235 4 134 2 150 13 226 27 252 164 205 241 194 150 176 209 152 28 217 115 137 171 114 241 120 146 154 150 197 225 122 22 78 210 227 105 207 230 121 249 44 168 69 182 182 230 60 75 184 73 3 216 77 248 9 203 44 82 146 235 27 134 226 180 104 187 109 108 70 142 221 106 84 96 198 77 151 189 129 235 67 235 110 200 71 120 150 145 40 236 123 6 140 62 208 192 223 56 230 21 192 214 206 87 245 129 217 195 107 151 161 122 145 210 35 159 100 59 111 191 156 97 27 157 14 239 63 210 54 40 103 244 149 206 158 215 191 221 170 210 89 66 84 30 98 210 148 42 8 158 11 63 194 105 234 99 120 60 7 195 84 118 161