P3
4 4
255
125
125
125

0
0
0

150
45
34

40
222
123

10
200
200

24
34
200

60
34
34

255
255
255

0
0
0

40
231
34

40
231
34

40
231
34

0
0
0

0
0
0

0
0
0

0
0
0
