P3
3 3
255
40
222
123

150
45
34

0
0
0

125
125
125

255
255
255

60
34
34

24
34
200

10
200
200

40
231
34
