P3
20 5
255
221
104
133

218
198
13

3
47
120

222
158
135

57
102
91

22
164
96

119
55
11

107
62
2

16
95
59

217
60
137

136
171
143

6
238
56

230
73
226

220
19
31

40
113
52

197
108
9

167
46
211

121
61
44

41
254
157

10
112
204

4
90
196

210
100
178

67
8
188

208
17
255

54
64
129

237
239
173

242
43
99

177
51
151

159
103
139

124
150
175

243
88
76

186
160
30

86
179
248

187
109
232

115
127
199

201
12
81

146
170
251

66
111
106

191
131
165

38
34
72

39
74
105

193
172
58

117
128
140

252
181
27

155
92
28

141
125
223

84
233
114

94
49
26

42
116
80

154
147
122

250
148
24

98
87
224

228
89
182

153
244
214

209
215
53

23
174
142

123
93
253

21
192
97

183
25
206

231
180
37

85
162
194

200
144
79

78
152
36

249
216
227

33
247
145

185
50
195

235
245
176

161
101
118

68
138
82

241
65
15

130
184
149

45
48
207

246
163
69

63
213
14

225
132
240

236
205
29

77
169
203

110
7
189

190
20
35

229
202
134

40
222
123

150
45
34

0
0
0

125
125
125

255
255
255

60
34
34

24
34
200

10
200
200

40
231
34

40
231
34

40
231
34

0
0
0

0
0
0

0
0
0

0
0
0

0
0
0

0
0
0

71
75
168

5
166
83

70
234
32
