P3
20 5
255
221
104
133

218
198
13

3
47
120

222
158
135

57
102
91

22
164
96

119
55
11

107
62
2

16
95
59

217
60
137

136
171
143

6
238
56

230
73
226

220
19
31

40
113
52

197
108
9

167
46
211

121
61
44

41
254
157

10
112
204

221
104
133

218
198
13

3
47
120

222
158
135

57
102
91

22
164
96

119
55
11

107
62
2

16
95
59

217
60
137

136
171
143

6
238
56

230
73
226

220
19
31

40
113
52

197
108
9

167
46
211

121
61
44

41
254
157

10
112
204

221
104
133

218
198
13

3
47
120

222
158
135

57
102
91

22
164
96

119
55
11

107
62
2

16
95
59

217
60
137

136
171
143

6
238
56

230
73
226

220
19
31

40
113
52

197
108
9

167
46
211

121
61
44

41
254
157

10
112
204

221
104
133

218
198
13

3
47
120

222
158
135

57
102
91

22
164
96

119
55
11

107
62
2

16
95
59

217
60
137

136
171
143

6
238
56

230
73
226

220
19
31

40
113
52

197
108
9

167
46
211

121
61
44

41
254
157

10
112
204

221
104
133

218
198
13

3
47
120

222
158
135

57
102
91

22
164
96

119
55
11

107
62
2

16
95
59

217
60
137

136
171
143

6
238
56

230
73
226

220
19
31

40
113
52

197
108
9

167
46
211

121
61
44

41
254
157

10
112
204

