P3
5 20
255
40
222
123

150
45
34

0
0
0

125
125
125

255
255
255

60
34
34

24
34
200

10
200
200

40
231
34

40
231
34

40
231
34

0
0
0

0
0
0

0
0
0

0
0
0

0
0
0

0
0
0

71
75
168

5
166
83

70
234
32

85
162
194

200
144
79

78
152
36

249
216
227

33
247
145

185
50
195

235
245
176

161
101
118

68
138
82

241
65
15

130
184
149

45
48
207

246
163
69

63
213
14

225
132
240

236
205
29

77
169
203

110
7
189

190
20
35

229
202
134

39
74
105

193
172
58

117
128
140

252
181
27

155
92
28

141
125
223

84
233
114

94
49
26

42
116
80

154
147
122

108
105
102

127
125
158

129
122
156

152
152
136

133
133
77

72
96
119

109
113
180

122
102
182

157
108
161

136
99
87

82
95
132

135
95
171

137
63
175

144
65
175

105
67
112

145
103
102

186
102
135

162
78
165

146
90
184

96
82
132

163
86
76

178
125
123

144
126
167

140
116
183

94
83
128

151
70
80

154
128
127

120
132
150

128
112
150

80
70
97

126
86
73

140
118
85

106
106
92

115
103
107

86
71
79

79
109
64

110
121
62

114
87
67

120
82
83

96
64
69

80
112
69

110
127
97

135
93
100

124
90
93

69
73
73

87
69
50

105
77
89

99
77
90

71
99
91

26
75
79
