P3
5 20
255
123
123
123

34
34
34

0
0
0

125
125
125

255
255
255

34
34
34

200
200
200

200
200
200

34
34
34

34
34
34

34
34
34

0
0
0

0
0
0

0
0
0

0
0
0

0
0
0

0
0
0

168
168
168

83
83
83

32
32
32

194
194
194

79
79
79

36
36
36

227
227
227

145
145
145

195
195
195

176
176
176

118
118
118

82
82
82

15
15
15

149
149
149

207
207
207

69
69
69

14
14
14

240
240
240

29
29
29

203
203
203

189
189
189

35
35
35

134
134
134

105
105
105

58
58
58

140
140
140

27
27
27

28
28
28

223
223
223

114
114
114

26
26
26

80
80
80

122
122
122

24
24
24

224
224
224

182
182
182

214
214
214

53
53
53

142
142
142

253
253
253

97
97
97

206
206
206

37
37
37

196
196
196

178
178
178

188
188
188

255
255
255

129
129
129

173
173
173

99
99
99

151
151
151

139
139
139

175
175
175

76
76
76

30
30
30

248
248
248

232
232
232

199
199
199

81
81
81

251
251
251

106
106
106

165
165
165

72
72
72

133
133
133

13
13
13

120
120
120

135
135
135

91
91
91

96
96
96

11
11
11

2
2
2

59
59
59

137
137
137

143
143
143

56
56
56

226
226
226

31
31
31

52
52
52

9
9
9

211
211
211

44
44
44

157
157
157

204
204
204
