P3
5 20
255
40
222
123

150
45
34

0
0
0

125
125
125

255
255
255

60
34
34

24
34
200

10
200
200

40
231
34

40
231
34

40
231
34

0
0
0

0
0
0

0
0
0

0
0
0

0
0
0

0
0
0

71
75
168

5
166
83

70
234
32

85
162
194

200
144
79

78
152
36

249
216
227

33
247
145

185
50
195

235
245
176

161
101
118

68
138
82

241
65
15

130
184
149

45
48
207

246
163
69

63
213
14

225
132
240

236
205
29

77
169
203

110
7
189

190
20
35

229
202
134

39
74
105

193
172
58

117
128
140

252
181
27

155
92
28

141
125
223

84
233
114

94
49
26

42
116
80

154
147
122

24
24
24

224
224
224

182
182
182

214
214
214

53
53
53

142
142
142

253
253
253

97
97
97

206
206
206

37
37
37

196
196
196

178
178
178

188
188
188

255
255
255

129
129
129

173
173
173

99
99
99

151
151
151

139
139
139

175
175
175

76
76
76

30
30
30

248
248
248

232
232
232

199
199
199

81
81
81

251
251
251

106
106
106

165
165
165

72
72
72

133
133
133

13
13
13

120
120
120

135
135
135

91
91
91

96
96
96

11
11
11

2
2
2

59
59
59

137
137
137

143
143
143

56
56
56

226
226
226

31
31
31

52
52
52

9
9
9

211
211
211

44
44
44

157
157
157

204
204
204
