P3
5 20
255
37
67
51

49
57
63

39
62
59

71
118
82

86
122
85

37
72
55

38
71
93

27
93
89

47
143
69

54
126
52

19
64
25

16
52
54

14
61
65

17
95
41

16
82
15

28
58
33

46
61
47

56
81
76

56
132
85

37
123
50

84
80
93

125
120
100

123
139
104

119
171
120

82
145
80

117
98
131

166
145
146

153
151
107

142
152
97

120
107
77

110
109
114

140
129
159

144
122
114

153
133
85

139
102
87

104
118
80

125
130
140

140
100
122

175
112
84

148
105
73

91
106
84

124
142
113

134
116
99

162
115
71

132
97
49

100
104
103

126
139
123

125
125
103

136
139
93

114
116
65

108
105
102

127
125
158

129
122
156

152
152
136

133
133
77

72
96
119

109
113
180

122
102
182

157
108
161

136
99
87

82
95
132

135
95
171

137
63
175

144
65
175

105
67
112

145
103
102

186
102
135

162
78
165

146
90
184

96
82
132

163
86
76

178
125
123

144
126
167

140
116
183

94
83
128

151
70
80

154
128
127

120
132
150

128
112
150

80
70
97

126
86
73

140
118
85

106
106
92

115
103
107

86
71
79

79
109
64

110
121
62

114
87
67

120
82
83

96
64
69

80
112
69

110
127
97

135
93
100

124
90
93

69
73
73

87
69
50

105
77
89

99
77
90

71
99
91

26
75
79
