P3
5 20
255
90
255
173

200
95
84

50
50
50

175
175
175

255
255
255

110
84
84

74
84
250

60
250
250

90
255
84

90
255
84

90
255
84

50
50
50

50
50
50

50
50
50

50
50
50

50
50
50

50
50
50

121
125
218

55
216
133

120
255
82

135
212
244

250
194
129

128
202
86

255
255
255

83
255
195

235
100
245

255
255
226

211
151
168

118
188
132

255
115
65

180
234
199

95
98
255

255
213
119

113
255
64

255
182
255

255
255
79

127
219
253

160
57
239

240
70
85

255
252
184

89
124
155

243
222
108

167
178
190

255
231
77

205
142
78

191
175
255

134
255
164

144
99
76

92
166
130

204
197
172

255
198
74

148
137
255

255
139
232

203
255
255

255
255
103

73
224
192

173
143
255

71
242
147

233
75
255

255
230
87

54
140
246

255
150
228

117
58
238

255
67
255

104
114
179

255
255
223

255
93
149

227
101
201

209
153
189

174
200
225

255
138
126

236
210
80

136
229
255

237
159
255

165
177
249

251
62
131

196
220
255

116
161
156

241
181
215

88
84
122

255
154
183

255
248
63

53
97
170

255
208
185

107
152
141

72
214
146

169
105
61

157
112
52

66
145
109

255
110
187

186
221
193

56
255
106

255
123
255

255
69
81

90
163
102

247
158
59

217
96
255

171
111
94

91
255
207

60
162
254
