P3
5 20
255
40
222
123

150
45
34

0
0
0

125
125
125

255
255
255

60
34
34

24
34
200

10
200
200

40
231
34

40
231
34

40
231
34

0
0
0

0
0
0

0
0
0

0
0
0

0
0
0

0
0
0

71
75
168

5
166
83

70
234
32

85
162
194

200
144
79

78
152
36

249
216
227

33
247
145

185
50
195

235
245
176

161
101
118

68
138
82

241
65
15

130
184
149

45
48
207

246
163
69

63
213
14

225
132
240

236
205
29

77
169
203

110
7
189

190
20
35

229
202
134

39
74
105

193
172
58

117
128
140

252
181
27

155
92
28

141
125
223

84
233
114

94
49
26

42
116
80

154
147
122

255
198
74

148
137
255

255
139
232

203
255
255

255
255
103

73
224
192

173
143
255

71
242
147

233
75
255

255
230
87

54
140
246

255
150
228

117
58
238

255
67
255

104
114
179

255
255
223

255
93
149

227
101
201

209
153
189

174
200
225

255
138
126

236
210
80

136
229
255

237
159
255

165
177
249

251
62
131

196
220
255

116
161
156

241
181
215

88
84
122

255
154
183

255
248
63

53
97
170

255
208
185

107
152
141

72
214
146

169
105
61

157
112
52

66
145
109

255
110
187

186
221
193

56
255
106

255
123
255

255
69
81

90
163
102

247
158
59

217
96
255

171
111
94

91
255
207

60
162
254
