P3
5 20
255
140
255
223

250
145
134

100
100
100

225
225
225

255
255
255

160
134
134

124
134
255

110
255
255

140
255
134

140
255
134

140
255
134

100
100
100

100
100
100

100
100
100

100
100
100

100
100
100

100
100
100

171
175
255

105
255
183

170
255
132

185
255
255

255
244
179

178
252
136

255
255
255

133
255
245

255
150
255

255
255
255

255
201
218

168
238
182

255
165
115

230
255
249

145
148
255

255
255
169

163
255
114

255
232
255

255
255
129

177
255
255

210
107
255

255
120
135

255
255
234

139
174
205

255
255
158

217
228
240

255
255
127

255
192
128

241
225
255

184
255
214

194
149
126

142
216
180

254
247
222

255
248
124

198
187
255

255
189
255

253
255
255

255
255
153

123
255
242

223
193
255

121
255
197

255
125
255

255
255
137

104
190
255

255
200
255

167
108
255

255
117
255

154
164
229

255
255
255

255
143
199

255
151
251

255
203
239

224
250
255

255
188
176

255
255
130

186
255
255

255
209
255

215
227
255

255
112
181

246
255
255

166
211
206

255
231
255

138
134
172

255
204
233

255
255
113

103
147
220

255
255
235

157
202
191

122
255
196

219
155
111

207
162
102

116
195
159

255
160
237

236
255
243

106
255
156

255
173
255

255
119
131

140
213
152

255
208
109

255
146
255

221
161
144

141
255
255

110
212
255
