P3
5 20
255
0
122
23

50
0
0

0
0
0

25
25
25

155
155
155

0
0
0

0
0
100

0
100
100

0
131
0

0
131
0

0
131
0

0
0
0

0
0
0

0
0
0

0
0
0

0
0
0

0
0
0

0
0
68

0
66
0

0
134
0

0
62
94

100
44
0

0
52
0

149
116
127

0
147
45

85
0
95

135
145
76

61
1
18

0
38
0

141
0
0

30
84
49

0
0
107

146
63
0

0
113
0

125
32
140

136
105
0

0
69
103

10
0
89

90
0
0

129
102
34

0
0
5

93
72
0

17
28
40

152
81
0

55
0
0

41
25
123

0
133
14

0
0
0

0
16
0

54
47
22

150
48
0

0
0
124

128
0
82

53
144
114

109
115
0

0
74
42

23
0
153

0
92
0

83
0
106

131
80
0

0
0
96

110
0
78

0
0
88

108
0
155

0
0
29

137
139
73

142
0
0

77
0
51

59
3
39

24
50
75

143
0
0

86
60
0

0
79
148

87
9
132

15
27
99

101
0
0

46
70
151

0
11
6

91
31
65

0
0
0

121
4
33

118
98
0

0
0
20

122
58
35

0
2
0

0
64
0

19
0
0

7
0
0

0
0
0

117
0
37

36
71
43

0
138
0

130
0
126

120
0
0

0
13
0

97
8
0

67
0
111

21
0
0

0
154
57

0
12
104
