P3
5 20
255
222
222
222

45
45
45

0
0
0

125
125
125

255
255
255

34
34
34

34
34
34

200
200
200

231
231
231

231
231
231

231
231
231

0
0
0

0
0
0

0
0
0

0
0
0

0
0
0

0
0
0

75
75
75

166
166
166

234
234
234

162
162
162

144
144
144

152
152
152

216
216
216

247
247
247

50
50
50

245
245
245

101
101
101

138
138
138

65
65
65

184
184
184

48
48
48

163
163
163

213
213
213

132
132
132

205
205
205

169
169
169

7
7
7

20
20
20

202
202
202

74
74
74

172
172
172

128
128
128

181
181
181

92
92
92

125
125
125

233
233
233

49
49
49

116
116
116

147
147
147

148
148
148

87
87
87

89
89
89

244
244
244

215
215
215

174
174
174

93
93
93

192
192
192

25
25
25

180
180
180

90
90
90

100
100
100

8
8
8

17
17
17

64
64
64

239
239
239

43
43
43

51
51
51

103
103
103

150
150
150

88
88
88

160
160
160

179
179
179

109
109
109

127
127
127

12
12
12

170
170
170

111
111
111

131
131
131

34
34
34

104
104
104

198
198
198

47
47
47

158
158
158

102
102
102

164
164
164

55
55
55

62
62
62

95
95
95

60
60
60

171
171
171

238
238
238

73
73
73

19
19
19

113
113
113

108
108
108

46
46
46

61
61
61

254
254
254

112
112
112
