P3
5 20
255
40
222
123

150
45
34

0
0
0

125
125
125

255
255
255

60
34
34

24
34
200

10
200
200

40
231
34

40
231
34

40
231
34

0
0
0

0
0
0

0
0
0

0
0
0

0
0
0

0
0
0

71
75
168

5
166
83

70
234
32

85
162
194

200
144
79

78
152
36

249
216
227

33
247
145

185
50
195

235
245
176

161
101
118

68
138
82

241
65
15

130
184
149

45
48
207

246
163
69

63
213
14

225
132
240

236
205
29

77
169
203

110
7
189

190
20
35

229
202
134

39
74
105

193
172
58

117
128
140

252
181
27

155
92
28

141
125
223

84
233
114

94
49
26

42
116
80

154
147
122

148
148
148

87
87
87

89
89
89

244
244
244

215
215
215

174
174
174

93
93
93

192
192
192

25
25
25

180
180
180

90
90
90

100
100
100

8
8
8

17
17
17

64
64
64

239
239
239

43
43
43

51
51
51

103
103
103

150
150
150

88
88
88

160
160
160

179
179
179

109
109
109

127
127
127

12
12
12

170
170
170

111
111
111

131
131
131

34
34
34

104
104
104

198
198
198

47
47
47

158
158
158

102
102
102

164
164
164

55
55
55

62
62
62

95
95
95

60
60
60

171
171
171

238
238
238

73
73
73

19
19
19

113
113
113

108
108
108

46
46
46

61
61
61

254
254
254

112
112
112
