P3
5 20
255
255
255
255

125
125
125

0
0
0

150
45
34

40
222
123

40
231
34

40
231
34

10
200
200

24
34
200

60
34
34

0
0
0

0
0
0

0
0
0

0
0
0

40
231
34

70
234
32

5
166
83

71
75
168

0
0
0

0
0
0

33
247
145

249
216
227

78
152
36

200
144
79

85
162
194

241
65
15

68
138
82

161
101
118

235
245
176

185
50
195

225
132
240

63
213
14

246
163
69

45
48
207

130
184
149

229
202
134

190
20
35

110
7
189

77
169
203

236
205
29

155
92
28

252
181
27

117
128
140

193
172
58

39
74
105

154
147
122

42
116
80

94
49
26

84
233
114

141
125
223

209
215
53

153
244
214

228
89
182

98
87
224

250
148
24

231
180
37

183
25
206

21
192
97

123
93
253

23
174
142

54
64
129

208
17
255

67
8
188

210
100
178

4
90
196

124
150
175

159
103
139

177
51
151

242
43
99

237
239
173

115
127
199

187
109
232

86
179
248

186
160
30

243
88
76

38
34
72

191
131
165

66
111
106

146
170
251

201
12
81

57
102
91

222
158
135

3
47
120

218
198
13

221
104
133

217
60
137

16
95
59

107
62
2

119
55
11

22
164
96

40
113
52

220
19
31

230
73
226

6
238
56

136
171
143

10
112
204

41
254
157

121
61
44

167
46
211

197
108
9
