P3
5 20
255
40
222
123

150
45
34

0
0
0

125
125
125

255
255
255

60
34
34

24
34
200

10
200
200

40
231
34

40
231
34

40
231
34

0
0
0

0
0
0

0
0
0

0
0
0

0
0
0

0
0
0

71
75
168

5
166
83

70
234
32

85
162
194

200
144
79

78
152
36

249
216
227

33
247
145

185
50
195

235
245
176

161
101
118

68
138
82

241
65
15

130
184
149

45
48
207

246
163
69

63
213
14

225
132
240

236
205
29

77
169
203

110
7
189

190
20
35

229
202
134

39
74
105

193
172
58

117
128
140

252
181
27

155
92
28

141
125
223

84
233
114

94
49
26

42
116
80

154
147
122

140
140
140

136
136
136

166
166
166

203
203
203

159
159
159

113
113
113

156
156
156

103
103
103

138
138
138

149
149
149

96
96
96

162
162
162

87
87
87

160
160
160

82
82
82

216
216
216

128
128
128

126
126
126

133
133
133

149
149
149

135
135
135

125
125
125

171
171
171

176
176
176

147
147
147

98
98
98

189
189
189

94
94
94

162
162
162

48
48
48

152
152
152

143
143
143

56
56
56

171
171
171

83
83
83

94
94
94

61
61
61

57
57
57

56
56
56

138
138
138

150
150
150

100
100
100

176
176
176

90
90
90

68
68
68

104
104
104

141
141
141

75
75
75

150
150
150

108
108
108
