P3
5 20
255
128
128
128

76
76
76

0
0
0

125
125
125

255
255
255

42
42
42

86
86
86

136
136
136

101
101
101

101
101
101

101
101
101

0
0
0

0
0
0

0
0
0

0
0
0

0
0
0

0
0
0

104
104
104

84
84
84

112
112
112

147
147
147

141
141
141

88
88
88

230
230
230

141
141
141

143
143
143

218
218
218

126
126
126

96
96
96

107
107
107

154
154
154

100
100
100

159
159
159

96
96
96

199
199
199

156
156
156

149
149
149

102
102
102

81
81
81

188
188
188

72
72
72

141
141
141

128
128
128

153
153
153

91
91
91

163
163
163

143
143
143

56
56
56

79
79
79

141
141
141

140
140
140

136
136
136

166
166
166

203
203
203

159
159
159

113
113
113

156
156
156

103
103
103

138
138
138

149
149
149

96
96
96

162
162
162

87
87
87

160
160
160

82
82
82

216
216
216

128
128
128

126
126
126

133
133
133

149
149
149

135
135
135

125
125
125

171
171
171

176
176
176

147
147
147

98
98
98

189
189
189

94
94
94

162
162
162

48
48
48

152
152
152

143
143
143

56
56
56

171
171
171

83
83
83

94
94
94

61
61
61

57
57
57

56
56
56

138
138
138

150
150
150

100
100
100

176
176
176

90
90
90

68
68
68

104
104
104

141
141
141

75
75
75

150
150
150

108
108
108
