P3
5 20
255
40
222
123

150
45
34

0
0
0

125
125
125

255
255
255

60
34
34

24
34
200

10
200
200

40
231
34

40
231
34

40
231
34

0
0
0

0
0
0

0
0
0

0
0
0

0
0
0

0
0
0

71
75
168

5
166
83

70
234
32

85
162
194

200
144
79

78
152
36

249
216
227

33
247
145

185
50
195

235
245
176

161
101
118

68
138
82

241
65
15

130
184
149

45
48
207

246
163
69

63
213
14

225
132
240

236
205
29

77
169
203

110
7
189

190
20
35

229
202
134

39
74
105

193
172
58

117
128
140

252
181
27

155
92
28

141
125
223

84
233
114

94
49
26

42
116
80

154
147
122

160
160
160

99
99
99

125
125
125

222
222
222

202
202
202

139
139
139

110
110
110

148
148
148

71
71
71

180
180
180

79
79
79

129
129
129

33
33
33

74
74
74

66
66
66

233
233
233

89
89
89

85
85
85

117
117
117

146
146
146

120
120
120

156
156
156

164
164
164

134
134
134

129
129
129

57
57
57

170
170
170

101
101
101

146
146
146

37
37
37

130
130
130

188
188
188

42
42
42

169
169
169

91
91
91

128
128
128

65
65
65

67
67
67

75
75
75

98
98
98

161
161
161

175
175
175

117
117
117

62
62
62

93
93
93

119
119
119

83
83
83

72
72
72

201
201
201

96
96
96
