P3
5 20
255
176
176
176

66
66
66

0
0
0

125
125
125

254
254
254

39
39
39

43
43
43

159
159
159

176
176
176

176
176
176

176
176
176

0
0
0

0
0
0

0
0
0

0
0
0

0
0
0

0
0
0

80
80
80

125
125
125

184
184
184

147
147
147

151
151
151

127
127
127

223
223
223

194
194
194

89
89
89

237
237
237

114
114
114

119
119
119

98
98
98

169
169
169

58
58
58

173
173
173

166
166
166

159
159
159

198
198
198

151
151
151

42
42
42

57
57
57

202
202
202

68
68
68

168
168
168

126
126
126

184
184
184

100
100
100

135
135
135

192
192
192

56
56
56

97
97
97

146
146
146

160
160
160

99
99
99

125
125
125

222
222
222

202
202
202

139
139
139

110
110
110

148
148
148

71
71
71

180
180
180

79
79
79

129
129
129

33
33
33

74
74
74

66
66
66

233
233
233

89
89
89

85
85
85

117
117
117

146
146
146

120
120
120

156
156
156

164
164
164

134
134
134

129
129
129

57
57
57

170
170
170

101
101
101

146
146
146

37
37
37

130
130
130

188
188
188

42
42
42

169
169
169

91
91
91

128
128
128

65
65
65

67
67
67

75
75
75

98
98
98

161
161
161

175
175
175

117
117
117

62
62
62

93
93
93

119
119
119

83
83
83

72
72
72

201
201
201

96
96
96
