P3
5 20
255
40
222
123

150
45
34

0
0
0

125
125
125

255
255
255

60
34
34

24
34
200

10
200
200

40
231
34

40
231
34

40
231
34

0
0
0

0
0
0

0
0
0

0
0
0

0
0
0

0
0
0

71
75
168

5
166
83

70
234
32

85
162
194

200
144
79

78
152
36

249
216
227

33
247
145

185
50
195

235
245
176

161
101
118

68
138
82

241
65
15

130
184
149

45
48
207

246
163
69

63
213
14

225
132
240

236
205
29

77
169
203

110
7
189

190
20
35

229
202
134

39
74
105

193
172
58

117
128
140

252
181
27

155
92
28

141
125
223

84
233
114

94
49
26

42
116
80

154
147
122

250
250
250

98
98
98

228
228
228

153
153
153

209
209
209

23
23
23

123
123
123

21
21
21

183
183
183

231
231
231

4
4
4

210
210
210

67
67
67

208
208
208

54
54
54

237
237
237

242
242
242

177
177
177

159
159
159

124
124
124

243
243
243

186
186
186

86
86
86

187
187
187

115
115
115

201
201
201

146
146
146

66
66
66

191
191
191

38
38
38

221
221
221

218
218
218

3
3
3

222
222
222

57
57
57

22
22
22

119
119
119

107
107
107

16
16
16

217
217
217

136
136
136

6
6
6

230
230
230

220
220
220

40
40
40

197
197
197

167
167
167

121
121
121

41
41
41

10
10
10
