P3
5 8
255
40
222
123

150
45
34

0
0
0

125
125
125

255
255
255

40
231
34

0
0
0

0
0
0

0
0
0

0
0
0

185
50
195

235
245
176

161
101
118

68
138
82

241
65
15

236
205
29

77
169
203

110
7
189

190
20
35

229
202
134

250
148
24

98
87
224

228
89
182

153
244
214

209
215
53

4
90
196

210
100
178

67
8
188

208
17
255

54
64
129

201
12
81

146
170
251

66
111
106

191
131
165

38
34
72

22
164
96

119
55
11

107
62
2

16
95
59

217
60
137
