P3
3 10
255
40
222
123

150
45
34

125
125
125

40
231
34

0
0
0

0
0
0

85
162
194

200
144
79

249
216
227

130
184
149

45
48
207

63
213
14

39
74
105

193
172
58

252
181
27

250
148
24

98
87
224

153
244
214

4
90
196

210
100
178

208
17
255

243
88
76

186
160
30

187
109
232

221
104
133

218
198
13

222
158
135

136
171
143

6
238
56

220
19
31
