P3
5 20
255
40
222
123

150
45
34

0
0
0

125
125
125

255
255
255

60
34
34

24
34
200

10
200
200

40
231
34

40
231
34

40
231
34

0
0
0

0
0
0

0
0
0

0
0
0

0
0
0

0
0
0

71
75
168

5
166
83

70
234
32

85
162
194

200
144
79

78
152
36

249
216
227

33
247
145

185
50
195

235
245
176

161
101
118

68
138
82

241
65
15

130
184
149

45
48
207

246
163
69

63
213
14

225
132
240

236
205
29

77
169
203

110
7
189

190
20
35

229
202
134

39
74
105

193
172
58

117
128
140

252
181
27

155
92
28

141
125
223

84
233
114

94
49
26

42
116
80

154
147
122

216
192
150

147
131
102

192
171
133

255
255
199

255
229
178

169
151
117

167
149
116

174
155
120

130
115
90

236
210
163

107
96
74

193
171
133

68
60
47

143
127
99

94
84
65

255
255
214

146
130
101

137
122
95

167
149
116

197
175
136

177
157
123

201
179
139

218
194
151

201
179
139

180
160
125

103
91
71

235
209
163

131
116
91

206
184
143

54
48
37

191
170
133

240
214
166

60
53
41

234
208
162

118
105
81

152
136
106

91
81
63

90
80
62

90
80
62

157
139
109

211
188
147

195
174
136

189
168
131

106
95
74

112
100
78

162
144
112

140
125
97

102
91
71

241
214
167

128
114
89
