P3
5 20
255
209
186
145

99
88
69

0
0
0

168
150
117

255
255
238

56
49
38

73
65
50

195
174
135

199
178
138

199
178
138

199
178
138

0
0
0

0
0
0

0
0
0

0
0
0

0
0
0

0
0
0

117
104
81

145
129
100

213
190
148

194
173
135

204
181
141

154
137
107

255
255
212

230
205
159

148
131
102

255
255
217

163
145
113

148
132
102

147
131
102

220
196
153

93
83
64

235
209
162

191
170
132

235
209
163

255
227
177

198
176
137

84
74
58

96
85
66

255
241
187

92
82
63

219
195
151

170
152
118

243
216
168

136
121
94

193
172
134

233
208
162

79
70
55

120
107
83

196
175
136

216
192
150

147
131
102

192
171
133

255
255
199

255
229
178

169
151
117

167
149
116

174
155
120

130
115
90

236
210
163

107
96
74

193
171
133

68
60
47

143
127
99

94
84
65

255
255
214

146
130
101

137
122
95

167
149
116

197
175
136

177
157
123

201
179
139

218
194
151

201
179
139

180
160
125

103
91
71

235
209
163

131
116
91

206
184
143

54
48
37

191
170
133

240
214
166

60
53
41

234
208
162

118
105
81

152
136
106

91
81
63

90
80
62

90
80
62

157
139
109

211
188
147

195
174
136

189
168
131

106
95
74

112
100
78

162
144
112

140
125
97

102
91
71

241
214
167

128
114
89
