P3
5 20
255
40
222
123

150
45
34

0
0
0

125
125
125

255
255
255

60
34
34

24
34
200

10
200
200

40
231
34

40
231
34

40
231
34

0
0
0

0
0
0

0
0
0

0
0
0

0
0
0

0
0
0

71
75
168

5
166
83

70
234
32

85
162
194

200
144
79

78
152
36

249
216
227

33
247
145

185
50
195

235
245
176

161
101
118

68
138
82

241
65
15

130
184
149

45
48
207

246
163
69

63
213
14

225
132
240

236
205
29

77
169
203

110
7
189

190
20
35

229
202
134

39
74
105

193
172
58

117
128
140

252
181
27

155
92
28

141
125
223

84
233
114

94
49
26

42
116
80

154
147
122

245
213
116

155
218
255

139
109
247

248
255
215

250
255
83

32
174
204

133
159
255

60
91
255

255
130
255

255
208
106

43
127
254

185
166
255

94
0
240

232
29
255

124
31
136

255
235
128

255
129
168

255
0
198

208
124
255

172
141
254

255
133
67

255
250
107

146
206
255

224
197
255

172
166
216

255
73
81

242
243
255

88
212
192

170
204
255

111
83
135

255
112
120

223
201
37

0
72
67

201
138
154

96
116
81

42
255
53

156
173
52

131
63
0

149
77
96

254
71
92

151
255
171

163
255
160

255
113
227

255
121
171

73
185
121

199
169
64

255
127
255

179
101
125

117
255
236

0
164
205
