P3
5 20
255
92
196
160

157
94
149

32
37
88

189
255
226

255
255
255

113
132
85

68
142
255

22
127
202

107
255
122

125
255
77

0
123
0

0
0
42

0
0
2

0
132
0

0
56
0

0
22
0

0
14
0

42
0
87

2
223
117

53
242
59

143
152
208

255
170
192

154
207
107

255
255
255

85
255
174

236
136
255

255
255
255

221
191
114

238
255
134

255
161
84

170
225
228

198
129
255

152
97
99

226
195
68

247
130
187

185
229
53

166
230
255

103
10
147

255
114
95

255
247
114

57
187
110

205
232
162

52
68
70

255
150
18

191
103
0

178
165
196

197
255
175

89
103
50

190
229
84

181
247
91

245
213
116

155
218
255

139
109
247

248
255
215

250
255
83

32
174
204

133
159
255

60
91
255

255
130
255

255
208
106

43
127
254

185
166
255

94
0
240

232
29
255

124
31
136

255
235
128

255
129
168

255
0
198

208
124
255

172
141
254

255
133
67

255
250
107

146
206
255

224
197
255

172
166
216

255
73
81

242
243
255

88
212
192

170
204
255

111
83
135

255
112
120

223
201
37

0
72
67

201
138
154

96
116
81

42
255
53

156
173
52

131
63
0

149
77
96

254
71
92

151
255
171

163
255
160

255
113
227

255
121
171

73
185
121

199
169
64

255
127
255

179
101
125

117
255
236

0
164
205
