P3
5 20
255
40
222
123

150
45
34

0
0
0

125
125
125

255
255
255

60
34
34

24
34
200

10
200
200

40
231
34

40
231
34

40
231
34

0
0
0

0
0
0

0
0
0

0
0
0

0
0
0

0
0
0

71
75
168

5
166
83

70
234
32

85
162
194

200
144
79

78
152
36

249
216
227

33
247
145

185
50
195

235
245
176

161
101
118

68
138
82

241
65
15

130
184
149

45
48
207

246
163
69

63
213
14

225
132
240

236
205
29

77
169
203

110
7
189

190
20
35

229
202
134

39
74
105

193
172
58

117
128
140

252
181
27

155
92
28

141
125
223

84
233
114

94
49
26

42
116
80

154
147
122

250
250
250

224
224
224

228
228
228

244
244
244

215
215
215

174
174
174

253
253
253

192
192
192

206
206
206

231
231
231

196
196
196

210
210
210

188
188
188

255
255
255

129
129
129

239
239
239

242
242
242

177
177
177

159
159
159

175
175
175

243
243
243

186
186
186

248
248
248

232
232
232

199
199
199

201
201
201

251
251
251

111
111
111

191
191
191

72
72
72

221
221
221

218
218
218

120
120
120

222
222
222

102
102
102

164
164
164

119
119
119

107
107
107

95
95
95

217
217
217

171
171
171

238
238
238

230
230
230

220
220
220

113
113
113

197
197
197

211
211
211

121
121
121

254
254
254

204
204
204
