P3
5 20
255
222
222
222

150
150
150

0
0
0

125
125
125

255
255
255

60
60
60

200
200
200

200
200
200

231
231
231

231
231
231

231
231
231

0
0
0

0
0
0

0
0
0

0
0
0

0
0
0

0
0
0

168
168
168

166
166
166

234
234
234

194
194
194

200
200
200

152
152
152

249
249
249

247
247
247

195
195
195

245
245
245

161
161
161

138
138
138

241
241
241

184
184
184

207
207
207

246
246
246

213
213
213

240
240
240

236
236
236

203
203
203

189
189
189

190
190
190

229
229
229

105
105
105

193
193
193

140
140
140

252
252
252

155
155
155

223
223
223

233
233
233

94
94
94

116
116
116

154
154
154

250
250
250

224
224
224

228
228
228

244
244
244

215
215
215

174
174
174

253
253
253

192
192
192

206
206
206

231
231
231

196
196
196

210
210
210

188
188
188

255
255
255

129
129
129

239
239
239

242
242
242

177
177
177

159
159
159

175
175
175

243
243
243

186
186
186

248
248
248

232
232
232

199
199
199

201
201
201

251
251
251

111
111
111

191
191
191

72
72
72

221
221
221

218
218
218

120
120
120

222
222
222

102
102
102

164
164
164

119
119
119

107
107
107

95
95
95

217
217
217

171
171
171

238
238
238

230
230
230

220
220
220

113
113
113

197
197
197

211
211
211

121
121
121

254
254
254

204
204
204
